<?xml version="1.0" standalone="no"?>
<!DOCTYPE svg PUBLIC "-//W3C//DTD SVG 20010904//EN"
 "http://www.w3.org/TR/2001/REC-SVG-20010904/DTD/svg10.dtd">
<svg version="1.0" xmlns="http://www.w3.org/2000/svg"
 width="605.000000pt" height="250.000000pt" viewBox="0 0 605.000000 250.000000"
 preserveAspectRatio="xMidYMid meet">

<g transform="translate(0.000000,250.000000) scale(0.100000,-0.100000)"
fill="#000000" stroke="none">
<path d="M119 2198 c-2 -7 -3 -457 -1 -1000 l2 -988 2829 0 c2570 0 2829 1
2835 16 8 20 8 1948 0 1968 -6 15 -265 16 -2834 16 -2254 0 -2829 -3 -2831
-12z m5614 -50 c2 -7 4 -436 3 -953 l-1 -940 -50 1 c-27 0 -1280 1 -2782 2
l-2733 2 0 950 0 950 2779 0 c2214 0 2780 -3 2784 -12z"/>
<path d="M4930 1636 c-120 -25 -246 -120 -299 -224 -121 -238 5 -536 261 -613
104 -32 229 -25 321 18 173 81 283 285 249 463 -17 95 -54 164 -124 233 -71
70 -144 110 -232 126 -73 13 -104 13 -176 -3z m212 -132 c27 -9 69 -35 97 -60
109 -98 137 -237 73 -366 -57 -117 -161 -183 -288 -182 -126 1 -229 66 -285
179 -74 151 -12 338 137 411 95 46 163 51 266 18z"/>
<path d="M893 1630 l-291 -5 -44 -30 c-62 -44 -102 -122 -101 -200 0 -99 43
-173 128 -218 37 -20 59 -22 268 -27 l229 -5 29 -33 c33 -37 39 -94 14 -142
-27 -53 -37 -55 -360 -60 l-300 -5 -3 -57 -3 -58 304 0 c338 0 363 4 426 63
72 68 96 199 53 284 -23 44 -79 98 -121 116 -15 6 -119 13 -253 16 -223 6
-227 6 -252 30 -15 14 -31 42 -37 62 -10 31 -9 43 7 75 38 75 37 75 355 83
l284 6 3 43 c3 44 -11 74 -32 70 -6 -1 -142 -5 -303 -8z"/>
<path d="M1885 1631 l-40 -6 -5 -300 c-5 -323 -4 -314 -60 -374 -77 -80 -231
-64 -296 31 -28 40 -29 47 -35 192 -4 83 -5 213 -1 288 6 164 4 168 -75 168
l-54 0 3 -307 3 -308 28 -57 c60 -122 171 -185 311 -176 129 8 221 70 272 180
l29 63 3 291 c3 260 2 293 -13 308 -9 9 -19 15 -23 15 -4 -1 -25 -5 -47 -8z"/>
<path d="M2085 1630 l-30 -5 0 -414 0 -415 27 -7 c14 -4 41 -4 60 0 l33 7 3
162 c1 89 6 162 10 162 4 0 90 -75 191 -167 l183 -166 121 2 c66 1 123 3 126
6 4 2 24 47 46 99 l40 96 189 -2 190 -3 40 -94 c27 -63 48 -97 63 -104 27 -12
92 -1 99 17 4 11 -44 136 -271 696 -25 63 -54 121 -62 128 -9 6 -33 12 -53 12
-20 0 -44 -6 -53 -12 -9 -7 -75 -152 -146 -323 -172 -413 -187 -449 -200 -453
-10 -3 -25 10 -205 173 l-99 90 61 7 c108 12 184 70 217 167 44 130 -13 267
-135 324 -40 19 -64 21 -230 22 -102 1 -198 -1 -215 -5z m392 -127 c49 -23 73
-66 73 -130 0 -44 -5 -58 -31 -87 -40 -46 -79 -56 -221 -56 l-118 0 0 145 0
145 131 0 c102 0 139 -4 166 -17z m682 -219 c34 -86 60 -158 58 -161 -2 -2
-63 -2 -135 -1 l-131 3 66 158 c36 86 69 157 72 157 4 0 35 -70 70 -156z"/>
<path d="M3328 1632 c-27 -2 -38 -8 -38 -20 0 -9 36 -72 79 -141 43 -70 109
-178 145 -241 l66 -114 0 -162 0 -162 43 -3 c82 -7 77 -17 77 165 l0 163 130
209 c72 115 134 210 138 212 11 3 60 -71 179 -267 l93 -155 0 -162 c0 -146 2
-163 18 -168 9 -3 26 -4 37 -1 11 2 30 4 42 4 21 1 22 4 25 169 l3 167 143
235 c78 130 142 243 142 252 0 20 -22 25 -81 20 -39 -3 -48 -8 -64 -35 -99
-174 -201 -335 -208 -328 -4 4 -54 84 -110 177 -70 116 -110 172 -127 179 -14
6 -62 9 -107 7 l-82 -4 -112 -184 c-62 -102 -115 -182 -120 -177 -4 4 -51 82
-104 173 -53 91 -102 171 -109 178 -14 15 -42 19 -98 14z"/>
</g>
</svg>
